<?xml version="1.0" encoding="UTF-8"?>
<svg id="iconLogo" data-name="圖層 1" xmlns="http://www.w3.org/2000/svg" viewBox="0 0 256 69.65">
  <defs>
    <style>
      .cls-1 {
        fill: #db434d;
      }

      .cls-2 {
        fill: #3f3b3a;
      }
    </style>
  </defs>
  <path class="cls-2" d="M31.16,31.86c0-.81,0-1.62,0-2.44,0-1.11,.64-1.63,1.73-1.39,1.51,.33,3.02,.68,4.53,1.02,1.51,.34,3.02,.68,4.53,1.02,.52,.12,.53,.12,.53-.4,0-2.72,0-5.44,0-8.16,0-4.89,0-9.78,0-14.67,0-.09,0-.19,0-.28,.04-.36-.05-.43-.38-.22-1.4,.9-2.8,1.78-4.21,2.67-4.19,2.66-8.39,5.32-12.59,7.97-.34,.21-.56,.47-.72,.83-1.28,2.82-2.57,5.62-3.86,8.44-.45,.99-.84,1.17-1.93,.91-2.02-.48-4.04-.95-6.05-1.45-.36-.09-.6-.02-.87,.19-.79,.62-1.58,1.23-2.4,1.8-.32,.22-.41,.47-.41,.84,.01,8.35,.01,16.7,.02,25.04,0,.19,0,.38,0,.57-.03,.74-.5,1.18-1.24,1.17-.7-.01-1.15-.46-1.19-1.17,0-.13,0-.26,0-.4,0-8.65,0-17.3-.01-25.95,0-.71,.21-1.24,.78-1.65,1.31-.95,2.6-1.95,3.93-2.87,.26-.18,.7-.24,1.01-.17,1.53,.33,3.05,.72,4.57,1.08,.44,.11,.9,.17,1.32,.32,.46,.17,.61-.02,.79-.4,1.16-2.58,2.36-5.14,3.52-7.72,.24-.54,.59-.94,1.09-1.25,6.4-4.05,12.79-8.1,19.19-12.16,.46-.29,.91-.46,1.43-.17,.53,.29,.66,.76,.66,1.33,0,8.65,0,17.3,0,25.95,0,.65,0,.65,.63,.8,7.45,1.68,14.91,3.37,22.36,5.05,.99,.22,1.27,.55,1.27,1.55,0,3.15,0,6.31,0,9.46,0,1.17-.66,1.66-1.81,1.36-1.26-.34-2.51-.68-3.77-1.02-.58-.16-.58-.16-.58,.42,0,1-.02,2,0,3,.02,.88-.33,1.49-1.07,1.98-3.5,2.31-6.99,4.63-10.47,6.96-.49,.33-.97,.61-1.56,.27-.57-.32-.68-.85-.67-1.45,.02-4.4,.02-8.8,.03-13.2,0-.91,.08-.7-.69-.96-.47-.15-.94-.29-1.4-.44-.8-.26-1.13-.86-.9-1.61,.21-.69,.8-.96,1.59-.73,.94,.28,1.88,.57,2.81,.86,.76,.24,1.03,.61,1.03,1.42,0,4,0,8.01,0,12.01,0,.13,0,.26,0,.4-.01,.29,.11,.27,.3,.14,.6-.4,1.2-.79,1.79-1.19,2.12-1.41,4.24-2.83,6.37-4.24,.28-.19,.4-.38,.4-.73-.02-1.44,0-2.87,0-4.31,0-1.32,.64-1.8,1.93-1.45,1.26,.34,2.51,.68,3.77,1.02,.48,.13,.48,.12,.49-.38,0-2.13,0-4.27,.04-6.4,0-.4-.11-.54-.51-.63-6.94-1.55-13.88-3.13-20.81-4.7-.52-.12-.52-.11-.52,.5,0,9.41,0,18.81-.02,28.22,0,.34-.06,.73-.24,1.01-.3,.47-.81,.57-1.36,.45-1.44-.3-2.88-.6-4.32-.9,0-.82,.01-1.65,.02-2.47,1.02,.2,2.04,.38,3.05,.62,.43,.1,.49-.05,.45-.39,0-.07,0-.15,0-.23,0-8.93,0-17.85,0-26.78,0-.11,0-.23,0-.34,.02-.24-.05-.36-.32-.42-2.74-.61-5.48-1.23-8.22-1.86-.29-.07-.32,.05-.31,.28,0,.45,0,.91,0,1.36-.04,0-.07,0-.1,.03-.79-.2-1.58-.39-2.37-.59h0Z"/>
  <path class="cls-1" d="M33.52,32.43s.06-.04,.1-.03c1.4,.3,2.81,.59,4.2,.91,1.05,.24,1.27,.55,1.26,1.62-.02,3.57-.06,7.13-.07,10.7-.02,4.85-.03,9.7-.04,14.55,0,.82-.01,1.65-.02,2.47,0,.85,0,1.7-.02,2.55-.02,1.05-.73,1.65-1.76,1.44-3.68-.75-7.36-1.51-11.03-2.28-.78-.16-1.12-.58-1.18-1.37-.01-.17,0-.34,0-.51,0-9.99,0-19.98,.01-29.97,0-.39,.08-.85,.29-1.17,.34-.53,.92-.59,1.52-.45,1.45,.33,2.91,.65,4.36,.98,0,0,0,0,0,0,0,.19-.02,.38-.02,.57,0,9.18,0,18.36,.01,27.53,0,.82,.33,1.21,1.13,1.37,.85,.17,1.7,.35,2.55,.53,1.18,.24,2.37,.47,3.55,.71,.39,.08,.55-.01,.52-.44-.03-.45-.04-.91,0-1.36,.03-.44-.12-.62-.57-.7-1.39-.25-2.78-.54-4.17-.82-.62-.12-.61-.13-.61-.75,0-8.38,0-16.77-.01-25.15,0-.3-.01-.6-.02-.91Z"/>
  <path class="cls-2" d="M110.39,27.99c0-2.8,0-5.59,0-8.39,0-.43,.1-.58,.55-.57,1.04,.04,2.08,.02,3.12,0,.25,0,.4,.05,.51,.32,1.67,4.1,3.35,8.2,5.02,12.31,.1,.24,.16,.5,.25,.75,.02,.05,.05,.08,.08,.13,.04-.03,.1-.06,.12-.1,.05-.1,.08-.21,.12-.32,1.75-4.25,3.5-8.51,5.25-12.76,.1-.25,.25-.32,.51-.32,1.02,.01,2.04,.03,3.06,0,.42-.01,.49,.15,.49,.52-.01,3.23,0,6.46,0,9.69,0,2.4,0,4.8,0,7.2,0,.4-.07,.57-.52,.55-.66-.04-1.32-.03-1.98,0-.37,.01-.52-.07-.52-.49,.03-4.19,.05-8.38,.06-12.58,0-.08,0-.15,0-.23,0-.05-.02-.1-.02-.15-.04,.03-.09,.06-.11,.1-.04,.08-.07,.17-.11,.26-1.73,4.18-3.46,8.36-5.18,12.55-.16,.38-.33,.58-.77,.53-.47-.05-1.05,.13-1.38-.09-.33-.22-.43-.8-.61-1.23-1.66-3.98-3.32-7.97-4.99-11.96-.03-.08-.09-.15-.14-.22-.01,.08-.03,.17-.03,.25,.01,4.19,.02,8.39,.03,12.58,0,.75,.08,.65-.67,.65-.57,0-1.14-.02-1.7,0-.36,.02-.44-.11-.44-.45,.01-2.42,0-4.84,0-7.25v-1.3Z"/>
  <path class="cls-2" d="M191.38,27.45c0-2.96,0-5.93,0-8.89,0-.4,.07-.57,.52-.54,.66,.04,1.32,.03,1.98,0,.38-.02,.47,.1,.47,.47-.02,2.3,0,4.61,0,6.91,0,.13,.02,.25,.04,.38,.09-.07,.2-.13,.27-.22,1.88-2.5,7.12-2.67,8.64,1.52,.85,2.33,.77,4.69-.25,6.95-1.1,2.44-3.48,3.63-6.09,3.16-.93-.17-1.7-.61-2.32-1.31-.07-.08-.16-.13-.24-.2-.02,.09-.04,.17-.05,.26-.03,.33,.08,.8-.1,.96-.19,.17-.64,.07-.98,.07-.47,0-.95-.02-1.42,0-.38,.03-.47-.1-.47-.47,.01-3.02,0-6.04,0-9.06Zm2.88,3.22s.04,0,.06,0c0,.36-.01,.72,0,1.07,.07,1.55,1.1,2.82,2.47,3.05,1.67,.28,2.97-.45,3.58-2.06,.49-1.28,.58-2.62,.28-3.95-.27-1.24-.93-2.2-2.26-2.48-1.81-.39-3.49,.66-3.92,2.46-.15,.62-.15,1.27-.21,1.9Z"/>
  <path class="cls-2" d="M188.11,32.42c0,1.36-.02,2.72,.01,4.08,0,.41-.13,.51-.51,.49-.68-.03-1.36-.02-2.04,0-.24,0-.33-.07-.33-.32,0-.38-.05-.77-.07-1.15-.25,.25-.49,.52-.76,.75-1.41,1.22-3.98,1.39-5.52,.34-1.36-.93-1.71-2.29-1.52-3.83,.19-1.51,1.02-2.57,2.44-3.06,.99-.34,2.05-.48,3.08-.68,.63-.12,1.27-.19,1.91-.26,.34-.04,.48-.15,.42-.54-.23-1.52-1.01-2.17-2.55-2.11-1.38,.06-2.62,.52-3.73,1.33-.1,.07-.22,.1-.33,.15-.01-.11-.03-.22-.03-.33,0-.62,.01-1.25,0-1.87,0-.28,.08-.45,.33-.58,1.85-.95,3.8-1.25,5.83-.85,1.84,.37,3.02,1.59,3.23,3.47,.15,1.31,.11,2.64,.14,3.96,0,.34,0,.68,0,1.02Zm-2.86-.98q0-.66-.81-.53c-.11,.02-.23,.02-.34,.04-.92,.17-1.87,.29-2.77,.55-.83,.24-1.18,.93-1.12,1.82,.05,.76,.56,1.4,1.33,1.57,1,.23,1.91,.04,2.68-.67,.76-.7,1.03-1.6,1.01-2.77Z"/>
  <path class="cls-2" d="M144.14,29.3c0-2.34,0-4.68,0-7.02q0-.6-.62-.6c-1.34,0-2.68,0-4.02,0-.31,0-.43-.07-.42-.4,.02-.62,.02-1.25,0-1.87,0-.31,.11-.37,.4-.37,4.12,0,8.24,0,12.35,0,.36,0,.45,.11,.44,.45-.03,.58-.03,1.17,0,1.75,.02,.35-.1,.45-.44,.44-1.38-.02-2.76,.01-4.14-.02-.43,0-.53,.11-.53,.54,.02,4.72,.01,9.44,0,14.16,0,.7,.07,.61-.59,.62-.62,0-1.25-.02-1.87,0-.43,.02-.58-.09-.57-.55,.03-2.38,.01-4.76,.01-7.14Z"/>
  <path class="cls-2" d="M166.3,27.99c0-2.79,0-5.59,0-8.38,0-.43,.08-.6,.55-.57,.68,.04,1.36,.02,2.04,0,.31,0,.43,.07,.42,.4-.02,.64,0,1.28,0,1.93,0,4.13,0,8.27,0,12.4,0,.57,0,.57,.58,.57,1.95,0,3.89,.01,5.84,0,.39,0,.53,.09,.5,.5-.03,.58-.02,1.17,0,1.76,0,.28-.05,.4-.37,.4-3.06-.01-6.12-.02-9.18,0-.44,0-.37-.25-.37-.51,0-2.83,0-5.66,0-8.5Z"/>
  <path class="cls-2" d="M142.85,46.53c-.83,0-1.66-.02-2.49,0-.44,.02-.64-.1-.56-.56,.01-.07-.03-.15-.05-.23-.03,.07-.06,.13-.08,.2-.08,.31-.15,.62-.25,.93-.06,.17-.05,.46-.39,.31-.05,.12-.14,.23-.14,.35,0,1.49-.05,2.98,0,4.47,.05,1.43-.93,1.51-1.84,1.27-.44-.12-.12-.59-.21-.88,.13-.02,.27-.04,.4-.06,.19-.04,.48-.02,.54-.13,.11-.19,.1-.46,.1-.7,0-.04-.17-.13-.26-.13-.42-.01-.83,0-1.25,0-.27,0-.31,.13-.3,.35,0,.38-.02,.76,0,1.13,.04,.42-.21,.39-.49,.39-.28,0-.5,.02-.5-.4,.02-1.68,0-3.36,0-5.04,0-.32,.11-.72-.46-.67-.04,0-.15-.19-.15-.3-.02-.51-.02-1.02,0-1.53,0-.12,.16-.33,.24-.33,.38,0,.37-.23,.36-.49,0-.77,.01-1.55,0-2.32-.01-.41,.11-.58,.55-.57,.91,.03,1.81,.02,2.72,0,.4,0,.54,.16,.53,.54-.01,.77,0,1.55,0,2.32,0,.41,.37,.82,.77,.83,.05,0,.14-.17,.14-.27,.01-.77,.03-1.55,0-2.32-.02-.42,.09-.6,.53-.54,.2,.03,.42-.01,.62,0,.41,.04,.7,0,.63-.54-.06-.43,.31-.26,.51-.29,.25-.03,.47,0,.42,.34-.07,.4,.09,.52,.49,.5,.28-.02,.38-.1,.34-.36-.05-.34,.05-.51,.45-.49,.36,0,.53,.09,.47,.47-.05,.3,.09,.4,.38,.38,.28-.02,.57,.01,.85,0,.35-.03,.5,.06,.49,.45-.03,1.15-.02,2.3,0,3.45,0,.36-.1,.45-.45,.44-.89-.02-1.78,0-2.66,0Zm-5.95,.35c.32,0,.65-.04,.96,0,.52,.09,.63-.19,.72-.61,.07-.32,0-.4-.31-.39-.83,.01-1.66,.03-2.49,0-.42-.02-.4,.22-.39,.5,0,.26-.06,.54,.38,.51,.37-.03,.75,0,1.13,0Zm-.92-3.13s.03,0,.05,0c0,.34-.01,.68,0,1.02,0,.07,.14,.2,.2,.19,.1-.02,.24-.11,.26-.19,.04-.2,.01-.41,.01-.62q0-1.01,1.03-1.05c.06,0,.14,.02,.17,0,.09-.09,.21-.18,.22-.29,.01-.09-.11-.27-.18-.28-.54-.01-1.09,0-1.63,.02-.04,.4-.09,.8-.13,1.21Zm1.05,4.07c-.21,0-.42,.01-.62,0-.35-.03-.34,.2-.34,.44,0,.23-.04,.46,.32,.45,.38-.02,.76-.02,1.13,0,.3,.02,.38-.09,.39-.38,.02-.38-.08-.57-.49-.5-.13,.02-.26,0-.4,0Zm-.08,2.64c.19,0,.38-.02,.57,0,.35,.04,.4-.12,.4-.42,0-.3-.06-.45-.4-.43-.38,.03-.76,0-1.13,.01-.1,0-.26,.08-.29,.17-.16,.43,0,.66,.47,.66,.13,0,.26,0,.4,0Zm4.19-5.67c-.35-.08-.45,.07-.45,.41,0,.34,.06,.49,.45,.49,.38,0,.41-.17,.41-.47,0-.31-.04-.53-.42-.43Zm-.03-.89c.3,.06,.46-.01,.45-.37,0-.31-.04-.48-.43-.47-.35,0-.45,.1-.44,.45,0,.33,.1,.46,.42,.39Zm-3.82,.55c.08,.16-.19,.52,.3,.54,.41,.01,.35-.26,.33-.49-.02-.22,.18-.56-.29-.58-.41-.02-.32,.26-.33,.53Zm7.73,.75c.06-.28-.02-.42-.37-.43-.36,0-.44,.12-.43,.45,0,.31,.03,.47,.42,.47,.41,0,.42-.2,.38-.5Zm-1.72-.03c.12-.35-.1-.38-.42-.4-.41-.03-.39,.2-.4,.48-.02,.35,.09,.44,.44,.45,.41,0,.42-.2,.38-.53Zm1.71-1.68c.07-.32-.07-.4-.39-.41-.39-.02-.4,.17-.41,.47-.01,.36,.16,.37,.44,.38,.36,.02,.41-.15,.36-.44Zm-1.71,.05c.07-.33-.03-.48-.4-.46-.3,.01-.43,.06-.43,.4,0,.32,.05,.48,.42,.46,.29-.02,.49-.03,.4-.39Z"/>
  <path class="cls-2" d="M118.22,46.96c.45,0,.91,0,1.36,0,.17,0,.34,.02,.49,.08,.62,.27,.66,.35,.44,.98-.89,2.48-2.73,3.92-5.19,4.63-1.55,.45-3.16,.53-4.76,.61-.41,.02-.45-.21-.52-.5-.2-.75-.2-.75,.55-.74,1.52,.02,3.02-.07,4.49-.45,.15-.04,.3-.06,.43-.14,.06-.03,.1-.23,.07-.26-.71-.59-1.42-1.19-2.15-1.75-.1-.07-.32-.02-.47,.02-.59,.13-1.17,.27-1.76,.43-.35,.1-.53,.02-.66-.35-.23-.67-.25-.66,.43-.77,1.34-.22,2.6-.64,3.66-1.53,.18-.15,.32-.36,.47-.54-.23,.05-.46,.11-.69,.16-1.57,.33-3.13,.65-4.7,.99-.38,.08-.56-.07-.61-.43-.02-.11-.04-.23-.08-.33-.16-.37,0-.45,.35-.46,1.38-.03,2.75-.2,4.08-.58,.21-.06,.41-.16,.61-.24-.16-.15-.3-.32-.48-.44-.53-.39-1.09-.75-1.62-1.14-.27-.2-.52-.27-.83-.13-.22,.1-.47,.13-.7,.22-.3,.12-.43,0-.55-.27-.32-.72-.33-.72,.44-.91,1.14-.28,2.19-.71,3.03-1.56,.09-.09,.29-.18,.38-.13,1.51,.8,3.14,.38,4.72,.46,.38,.02,.67,.12,.98,.33,.38,.26,.31,.47,.09,.77-.74,1.04-1.58,1.98-2.69,2.64-.23,.14-.45,.27-.68,.41-.17,.11-.33,.24-.49,.35,.18,.07,.39,.11,.54,.23,.29,.23,.55,.41,.96,.35,.35-.05,.72,0,1.08,0Zm-.82,1.13c-.36,0-.72,.05-1.07-.01-.67-.11-1.15,.22-1.65,.56-.22,.14-.17,.22,0,.36,.67,.55,1.32,1.12,2,1.66,.1,.08,.33,.1,.43,.04,.9-.56,1.59-1.32,2.07-2.26,.15-.31,.03-.35-.24-.34-.51,.01-1.02,0-1.53,0Zm-1.72-5.1c-.6,0-1.21-.02-1.81,.01-.27,.02-.53,.13-.78,.24-.26,.1-.23,.23-.01,.39,.69,.49,1.37,1,2.06,1.48,.1,.07,.3,.13,.39,.07,.86-.48,1.67-1.02,2.28-1.81,.06-.08,.06-.2,.1-.3-.1-.03-.21-.07-.31-.07-.64,0-1.28,0-1.92,0Z"/>
  <path class="cls-2" d="M243.49,52.99c-1.76,0-3.51,0-5.27,0-.17,0-.48-.05-.49-.12-.05-.29-.03-.6,0-.89,0-.04,.26-.08,.41-.08,1.4,0,2.8-.02,4.19,0,.42,0,.59-.07,.57-.54-.04-.81,0-.81-.8-.81-1.1,0-2.19-.01-3.29,0-.32,0-.42-.09-.42-.41,0-.71-.02-.71,.68-.71,1.11,0,2.23-.01,3.34,0,.35,0,.49-.06,.48-.46-.02-.83,0-.84-.83-.81-1.09,.04-2.19,.09-3.28,.12-.14,0-.38-.06-.41-.14-.1-.28-.13-.58-.17-.87,0-.02,.08-.06,.13-.07,.07-.02,.15-.03,.23-.02,1.39,.28,1.92-.83,2.65-1.62,.14-.15,.1-.23-.1-.23-.43,0-.87-.01-1.3,0-.27,.01-.4-.05-.41-.37-.02-.72-.04-.72,.68-.72,2.29,0,4.57,0,6.86,0,.18,0,.5,.06,.52,.15,.07,.26,.03,.56-.01,.83,0,.05-.26,.09-.4,.09-1.19,0-2.38,.03-3.57,0-.47-.02-.77,.13-1.03,.51-.23,.34-.53,.64-.79,.96-.05,.06-.06,.15-.09,.23,.07,.01,.14,.04,.21,.03,.68-.01,1.36-.03,2.04-.05,.76-.02,1.51-.05,2.26-.09,.1,0,.2-.05,.3-.08-.05-.07-.11-.15-.16-.22-.1-.16-.31-.41-.27-.46,.2-.25,.46-.45,.71-.64,.03-.02,.19,.09,.26,.17,.66,.75,1.31,1.51,1.97,2.26,.19,.22,.16,.36-.06,.55-.6,.53-.62,.56-1.06-.08-.26-.37-.54-.5-.98-.47-.79,.07-1.58,.09-2.38,.11-.33,0-.4,.13-.4,.44,0,.93-.02,.93,.91,.93,1.08,0,2.16,.03,3.23-.01,.54-.02,.43,.3,.45,.61,.02,.35-.02,.55-.47,.54-1.23-.03-2.46,0-3.68-.02-.35,0-.45,.09-.44,.44,.01,.91,0,.91,.88,.91,1.32,0,2.65,.02,3.97-.01,.48-.01,.45,.23,.45,.55,0,.31,.04,.58-.44,.57-1.79-.03-3.59-.01-5.39-.01Z"/>
  <path class="cls-2" d="M161.88,50.47c0-.81-.02-1.62,.01-2.43,.01-.28-.07-.29-.27-.2-.07,.03-.13,.07-.2,.1-.81,.35-.59,.41-1.11-.35-.22-.32-.06-.37,.21-.49,.58-.26,1.15-.55,1.68-.91,.28-.19,.45-.54,.68-.81-.31-.02-.63-.05-.94-.06-.32-.01-.64-.03-.96,0-.41,.04-.52-.12-.51-.51,0-.36,.05-.56,.48-.53,.6,.03,1.21,0,1.81,.02,.34,.01,.56-.06,.48-.46-.04-.22-.13-.61-.17-.61-.41,.03-.86-.22-1.23,.15-.07,.07-.11,.15-.17,.23-.53,.71-.64,.71-1.15-.04-.04-.06-.03-.2,.01-.28,.33-.59,.68-1.17,1.02-1.75,.03-.06,.11-.15,.14-.14,.2,.05,.39,.13,.58,.2,.18,.07,.43,.1,.31,.41,0,0,.21,.15,.33,.15,.98,.01,1.96,.03,2.95,0,.42-.01,.5,.14,.49,.52,0,.35-.03,.57-.47,.53-.41-.04-.83,0-1.25-.01-.28-.01-.44,.05-.39,.37,.01,.09,.01,.19,0,.28-.05,.34,.07,.47,.43,.45,.53-.03,1.06,.01,1.59-.01,.44-.02,.37,.27,.36,.52,0,.25,.08,.55-.36,.53-.45-.03-.91,0-1.36,0-.08,0-.17,.04-.25,.06,.05,.06,.1,.14,.16,.19,.45,.32,.89,.64,1.35,.94,.3,.19,.33,.37,.08,.62-.04,.04-.07,.09-.1,.14-.19,.37-.37,.43-.71,.11-.45-.42-.98-.77-1.46-1.16-.19-.15-.28-.12-.45,.05-.43,.44-.91,.84-1.36,1.26-.09,.08-.15,.18-.23,.27,.12,.03,.23,.1,.35,.1,1.79,0,3.59,0,5.38,0,.85,0,1.7,.01,2.55,0,.34,0,.46,.1,.46,.45-.02,1.53,0,3.06,0,4.59,0,.18,.05,.45-.25,.36-.27-.08-.73,.31-.8-.28-.03-.23-.12-.28-.32-.28-2,0-4,0-6.01,.01-.11,0-.31,.14-.33,.24-.11,.61-.57,.24-.85,.29-.36,.07-.22-.27-.22-.44-.01-.79,0-1.59,0-2.38Zm4.39-.67c.98,0,1.96-.01,2.94,0,.32,0,.42-.09,.41-.41-.01-.3-.03-.5-.42-.49-1.96,.01-3.92,.01-5.89,0-.37,0-.37,.19-.38,.46,0,.28,.02,.45,.38,.44,.98-.02,1.96,0,2.94,0Zm0,1.91c.98,0,1.96-.01,2.94,0,.32,0,.44-.09,.41-.41-.02-.27,.04-.51-.39-.5-1.96,.02-3.92,.02-5.88,0-.39,0-.4,.18-.42,.48-.02,.36,.11,.45,.45,.44,.96-.02,1.92,0,2.88,0Z"/>
  <path class="cls-2" d="M133.62,28.01c0-2.81,0-5.63-.01-8.44,0-.42,.1-.56,.53-.53,.64,.04,1.29,.03,1.93,0,.43-.02,.58,.08,.57,.55-.03,1.58-.01,3.17-.01,4.76,0,4.02,0,8.04,0,12.06q0,.57-.58,.58c-.62,0-1.25,0-1.87,0-.61,0-.56,.09-.56-.59,0-2.79,0-5.59,0-8.38Z"/>
  <path class="cls-2" d="M127.06,45.22c0-.49-.02-.98,0-1.47,.01-.32-.1-.43-.42-.42-.19,0-.51-.01-.55-.11-.09-.21-.08-.49-.02-.72,.03-.09,.3-.18,.45-.17,.41,.03,.62-.08,.53-.53-.09-.47,.23-.4,.52-.41,.31,0,.59,0,.51,.43-.07,.39,.08,.52,.48,.5,.74-.03,1.47-.02,2.21,0,.3,0,.46-.05,.43-.4-.01-.17,.04-.47,.12-.49,.25-.07,.52-.05,.78,0,.06,.01,.13,.25,.12,.38-.04,.38,.08,.58,.49,.51,.48-.08,.4,.25,.4,.53,0,.26,.06,.57-.37,.49-.46-.08-.53,.15-.52,.55,.02,.87,.01,1.74,0,2.61,0,.75-.07,.81-.8,.81-.28,0-.57,.01-.85,0-.3-.02-.49,0-.48,.41,0,.39,.13,.47,.49,.46,.76-.02,1.51,.02,2.27-.02,.45-.02,.36,.27,.36,.52,0,.25,.08,.54-.37,.52-.68-.03-1.36-.01-2.04,0-.1,0-.21,.04-.31,.06,.04,.1,.07,.2,.14,.28,.7,.91,1.57,1.63,2.52,2.26,.43,.28,.43,.29,.03,.63-.54,.45-.37,.52-.95,.04-.64-.52-1.23-1.11-1.84-1.67-.06-.06-.14-.1-.2-.16-.02,.09-.06,.17-.06,.26,0,.66-.02,1.32,0,1.98,.02,.36-.12,.45-.45,.44-.8-.03-.65,.04-.65-.68,0-.66,0-1.32,0-1.98,0-.09-.04-.17-.05-.26-.07,.05-.14,.1-.21,.15-.71,.65-1.41,1.3-2.13,1.94-.12,.11-.4,.22-.47,.16-.25-.19-.45-.45-.64-.7,0-.01,.15-.17,.25-.25,.82-.69,1.64-1.38,2.46-2.08,.1-.09,.16-.24,.23-.35-.14-.02-.28-.06-.42-.07-.51,0-1.02-.03-1.53,0-.47,.04-.41-.25-.41-.54,0-.28-.03-.52,.39-.5,.7,.03,1.4,0,2.1,.02,.32,0,.47-.05,.47-.42,0-.4-.15-.48-.49-.45-.3,.02-.6,.01-.91,0-.51-.01-.58-.08-.58-.61,0-.49,0-.98,0-1.47Zm2.58-1.89c-.41,0-.83,.02-1.24,0-.37-.02-.33,.23-.31,.45,.02,.21-.15,.53,.29,.52,.85,0,1.69,0,2.54,0,.43,0,.26-.32,.28-.53,.03-.23,.04-.46-.32-.44-.41,.02-.83,0-1.24,0Zm.05,1.98c-.43,0-.87,.01-1.3,0-.39-.02-.3,.26-.29,.46,.01,.21-.14,.53,.29,.52,.83,0,1.66,0,2.49,0,.46,0,.31-.33,.33-.56,.02-.23,.04-.46-.33-.43-.39,.03-.79,0-1.19,0Z"/>
  <path class="cls-2" d="M153.38,51.47c-1.25,0-2.49-.02-3.74,0-.4,0-.51-.12-.5-.51,.03-.85,0-1.7,.01-2.55,0-.33-.1-.45-.42-.37-.09,.02-.19,.03-.28,.03-.17,0-.45,.05-.5-.04-.14-.21-.19-.49-.24-.74,0-.03,.19-.15,.29-.14,.36,.02,.43-.15,.43-.48-.02-1.43,0-2.87-.01-4.3,0-.34,.08-.46,.44-.45,1.25,.02,2.49,.02,3.74,0,.36,0,.45,.11,.44,.45-.02,.98,0,1.96,0,2.94,0,.11-.02,.3-.05,.31-.59,.11-.19,.41-.12,.62,.11,.28,.25,.55,.38,.82,.16,.32,.32,.64-.23,.74-.04,0-.07,.07-.1,.1,.07,.01,.14,.04,.21,.04,1.25,0,2.49,0,3.74,0,.13,0,.27,.01,.4,0,.27-.03,.36,.08,.36,.35-.01,.92-.02,1.85,0,2.77,0,.35-.14,.39-.44,.39-1.27-.01-2.53,0-3.8,0Zm.01-2.15c.92,0,1.85,0,2.77,0,.18,0,.38,.06,.39-.25,0-.33-.19-.31-.41-.31-1.85,0-3.7,0-5.55,0-.24,0-.39,.02-.38,.33,.01,.33,.24,.23,.4,.23,.92,0,1.85,0,2.77,0Zm-.05,1.35c.92,0,1.85,0,2.77,0,.19,0,.43,.09,.44-.26,0-.34-.21-.29-.41-.29-1.83,0-3.66,0-5.49,0-.19,0-.42-.08-.43,.27,0,.34,.21,.29,.41,.29,.91,0,1.81,0,2.72,0Zm-2.59-4.97c-.15,0-.3,0-.45,0-.97,0-.96,0-.87,.97,.02,.25,.13,.29,.32,.24,.53-.13,1.05-.34,1.59-.38,.59-.04,.19-.64,.53-.77-.2-.02-.41-.05-.61-.06-.17-.01-.34,0-.51,0Zm-.04-2.86c-.34,0-.68-.02-1.02,.01-.09,0-.22,.15-.25,.26-.06,.19,.02,.32,.26,.31,.68-.01,1.36,0,2.04-.02,.09,0,.22-.19,.24-.31,.01-.06-.16-.23-.26-.24-.34-.03-.68-.01-1.02-.01Zm0,1.95c.34,0,.68,.02,1.02-.01,.1,0,.18-.16,.27-.24-.09-.09-.17-.26-.26-.26-.68-.02-1.36-.02-2.04,0-.09,0-.24,.16-.25,.26,0,.08,.15,.24,.24,.24,.34,.03,.68,.01,1.02,.01Zm.35,3.21s0-.02,0-.03c.34,0,.68,0,1.02,0,.46,0,.48-.05,.28-.47-.1-.22-.22-.27-.44-.19-.3,.11-.61,.2-.92,.28-.4,.11-.79,.2-1.19,.3,.41,.03,.83,.07,1.24,.1Z"/>
  <path class="cls-2" d="M95.33,34.97c0-10.39,0-20.78,0-31.16,0-.15-.04-.32,.01-.45,.04-.1,.2-.21,.3-.21,.13,0,.29,.11,.35,.21,.06,.09,.01,.26,.01,.39,0,20.85,0,41.7,0,62.55,0,.29,.13,.71-.42,.6-.1-.02-.21-.16-.24-.27-.04-.14-.01-.3-.01-.45,0-10.41,0-20.81,0-31.22Z"/>
  <path class="cls-2" d="M173.57,49.3c0-1.13,.01-2.27,0-3.4,0-.42,.16-.56,.57-.56,1.34,.02,2.68-.01,4.02,.02,.5,.01,.34-.15,.24-.44-.17-.49-.47-.53-.92-.46-1.21,.19-2.43,.35-3.64,.51-.15,.02-.42,.02-.46-.06-.14-.28-.21-.6-.29-.9,0-.02,.15-.12,.22-.12,.36,.04,.5-.2,.63-.45,.3-.57,.63-1.12,.88-1.71,.16-.36,.32-.4,.62-.21,.09,.06,.2,.12,.3,.15,.23,.07,.23,.21,.13,.39-.22,.44-.43,.88-.65,1.32-.09,.19-.08,.29,.16,.26,.64-.08,1.27-.15,1.91-.23,.29-.04,.13-.19,.07-.32-.08-.18-.26-.48-.21-.53,.22-.2,.5-.33,.77-.46,.05-.02,.19,.08,.24,.16,.45,.77,.88,1.54,1.32,2.31,.11,.19,.07,.31-.14,.38-.11,.04-.21,.1-.31,.14-.26,.1-.56,.16-.27,.55,.07,.1,.03,.29,.03,.44,0,1.91,0,3.81,0,5.72,0,1.06-.42,1.48-1.47,1.49-.13,0-.26,0-.4,0-.94-.04-.98-.1-1.04-1.02-.02-.36,.09-.36,.38-.27,.28,.09,.59,.15,.88,.14,.16-.01,.42-.19,.45-.33,.07-.3,.03-.62,0-.94,0-.03-.17-.06-.26-.06-.77,0-1.55,0-2.32,0-.28,0-.36,.1-.35,.36,.01,.55-.01,1.1,0,1.64,.01,.3-.1,.38-.39,.39-.73,.01-.73,.03-.73-.71,0-1.06,0-2.11,0-3.17Zm2.57,.44c.38,0,.76-.02,1.13,0,.34,.02,.44-.12,.4-.42-.01-.11-.01-.23,0-.34,.03-.27-.08-.36-.35-.36-.75,.02-1.51,.02-2.26,0-.31,0-.4,.11-.37,.39,.01,.11,.01,.23,0,.34-.03,.29,.08,.41,.38,.39,.36-.02,.72,0,1.08,0Zm.03-2.16c.4,0,.79,0,1.19,0,.21,0,.32-.06,.31-.29-.01-.19,.03-.39-.02-.56-.03-.12-.18-.28-.29-.28-.79-.02-1.59-.02-2.38,0-.1,0-.26,.08-.29,.16-.22,.64,.01,.97,.68,.97,.26,0,.53,0,.79,0Z"/>
  <path class="cls-2" d="M190.03,43.75s.04-.07,.04-.1c.02-.32-.09-.8,.07-.91,.25-.17,.67-.1,1.03-.11,.45-.01,.91-.04,1.36,0,.47,.05,.6-.15,.54-.57,0-.04,0-.08,0-.11-.07-.4,.11-.51,.49-.49,.7,.04,.63-.06,.6,.6-.02,.43,.09,.59,.56,.57,.81-.04,1.63,0,2.44-.02,.35,0,.46,.09,.45,.44-.03,.86,.02,.68-.7,.69-.79,0-1.59,.01-2.38,0-.27,0-.35,.08-.36,.35-.06,1.36-.07,1.36,1.29,1.36,.4,0,.79,0,1.19,0,.6,.02,.79,.3,.62,.87-.45,1.47-1.28,2.73-2.31,3.85-.32,.34-.26,.51,.12,.7,.84,.43,1.67,.88,2.51,1.29,.28,.14,.45,.2,.17,.53-.64,.75-.39,.77-1.29,.28-.79-.43-1.55-.93-2.29-1.45-.29-.2-.45-.2-.72,0-.98,.73-2.06,1.24-3.22,1.63-.36,.12-.61,.12-.77-.27-.04-.1-.12-.19-.19-.28-.23-.27-.14-.36,.18-.48,1.07-.42,2.11-.89,3.17-1.34,.33-.14,.33-.28,.08-.56-.64-.72-1.21-1.5-1.83-2.23-.25-.3-.2-.48,.13-.64,.08-.04,.16-.1,.23-.16,.22-.2,.35-.15,.53,.1,.53,.74,1.08,1.46,1.65,2.16,.35,.43,.4,.43,.73-.02,.56-.78,1.09-1.58,1.6-2.4,.23-.37,.16-.44-.28-.44-1.47,0-2.95-.03-4.42,.01-.54,.01-.43-.3-.45-.61-.02-.33-.02-.58,.45-.54,.54,.04,1.1,0,1.64,.02,.29,0,.42-.07,.39-.38-.02-.32-.02-.64,0-.96,.02-.3-.1-.38-.39-.38-.89,.01-1.77,0-2.66,0h.01Z"/>
  <path class="cls-2" d="M217.76,47.12c1.36,0,2.72,.02,4.08-.01,.44,0,.54,.13,.53,.54-.03,1.15-.03,2.3,0,3.45,0,.4-.13,.53-.51,.5-.28-.03-.57-.01-.85,0-.08,0-.15,.06-.23,.09,.07,.05,.13,.12,.21,.15,.54,.18,1.07,.36,1.61,.52,.22,.06,.32,.1,.23,.37-.23,.74-.22,.76-.95,.52-.73-.25-1.46-.51-2.19-.76-.3-.1-.46-.22-.27-.55,.18-.3-.02-.34-.26-.34-.85,0-1.7,.01-2.55,0-.32,0-.49,.07-.33,.41,.13,.28-.02,.37-.25,.44-1.01,.3-2.02,.61-3.03,.91-.28,.08-.44,0-.44-.3,0-.27-.35-.62,.18-.77,.55-.15,1.09-.31,1.63-.47,.06-.02,.11-.08,.16-.12-.06-.03-.11-.09-.17-.09-.28-.01-.57-.01-.85,0-.23,0-.34-.05-.34-.31,.01-1.28,.01-2.57,0-3.85,0-.37,.23-.32,.45-.32,1.38,0,2.76,0,4.14,0Zm0,2.01c-1.04,0-2.07,0-3.11,0-.15,0-.4,.11-.42,.2-.06,.31,.22,.23,.38,.23,2.11,0,4.22,0,6.33,0,.13,0,.35-.11,.36-.19,.06-.31-.21-.24-.38-.24-1.06,0-2.11,0-3.17,0Zm-.02-.75c.62,0,1.24,0,1.86,0,.49,0,.98,0,1.47-.01,.09,0,.17-.14,.25-.21-.07-.07-.14-.15-.22-.19-.06-.03-.15,0-.22,0-2.07,0-4.14,0-6.22,0-.15,0-.42,.12-.42,.19-.02,.34,.28,.21,.45,.21,1.02,.01,2.03,0,3.05,0Zm.08,1.96c-1.08,0-2.15,0-3.23,0-.13,0-.25,.13-.38,.19,.13,.07,.26,.19,.38,.2,2.11,.01,4.23,.01,6.34,0,.13,0,.25-.13,.38-.2-.13-.06-.26-.18-.39-.19-1.04-.02-2.08,0-3.11,0Z"/>
  <path class="cls-2" d="M225.05,44.85c0-.91,.01-1.81,0-2.72,0-.32,.1-.42,.42-.42,1.25,.01,2.49,.02,3.74,0,.4,0,.34,.23,.35,.47,.01,.27,0,.49-.37,.45-.24-.03-.49,.01-.74,0-.36-.03-.49,.07-.49,.46,0,.4,.16,.49,.5,.45,.11-.01,.23,.02,.34,0,.46-.09,.53,.15,.51,.54-.01,.3-.1,.41-.39,.38-.15-.02-.3,.01-.45,0-.4-.06-.52,.12-.5,.51,.02,.28,.07,.44,.38,.39,.13-.02,.26,0,.4,0,.52,0,.72,.28,.54,.76-.03,.07-.16,.14-.25,.15-.19,.02-.38,0-.57,0-.5,0-.57,.07-.48,.55,.02,.11,.18,.27,.29,.28,.39,.03,.79,.01,1.19,.02,.2,0,.39,.01,.38,.29-.04,1.51-.07,3.02-.11,4.52,0,.07-.03,.15-.04,.22-.03,.12-.06,.24-.09,.36,.11-.09,.24-.16,.32-.27,.56-.71,.93-1.51,1.14-2.38,.16-.63,.54-.17,.81-.18,.34-.02,.27,.26,.18,.44-.25,.53-.08,.89,.39,1.17,.05,.03,.09,.07,.13,.11,.49,.42,.46,.79-.12,1.11-.07,.04-.23-.03-.31-.1-.23-.19-.44-.39-.66-.59-.15,.24-.31,.47-.46,.71-.02,.03-.04,.06-.06,.09-.51,.73-.51,.73-1.25,.25-.19-.12-.28-.11-.46,.04-.57,.49-1.28,.38-1.95,.34-.08,0-.17-.28-.19-.44-.09-.59-.08-.59,.47-.54,.89,.08,1.18-.18,1.24-1.08,.01-.21,0-.42,.02-.62,.01-.2,.03-.38-.28-.32-.06,.01-.2-.13-.24-.22-.14-.39-.24-.79-.37-1.19-.06-.19-.07-.36,.17-.37,.15,0,.32,.06,.46,.13,.06,.03,.05,.17,.09,.26,.03,.08,.08,.16,.12,.24,.02-.1,.04-.19,.05-.29,0-.06,0-.11,0-.17q-.01-.61-.62-.61c-.87,0-1.74-.03-2.61,.01-.47,.02-.57-.15-.55-.58,.03-.87,0-1.74,0-2.61Zm1.49,1.41c-.36-.08-.49,.05-.49,.43,0,.38,.16,.42,.47,.41,.3,0,.53,.01,.52-.43,0-.41-.17-.48-.51-.42Zm0-2.74c.33,.06,.53,0,.51-.41-.02-.33-.05-.51-.45-.49-.35,.02-.55,.03-.54,.47,0,.38,.13,.51,.49,.43Zm.05,.93c-.31-.04-.55-.05-.54,.4,0,.38,.1,.52,.5,.5,.32-.02,.51-.04,.49-.44-.01-.35-.08-.54-.45-.45Z"/>
  <path class="cls-2" d="M217.53,46.7c-1.23,0-2.45,0-3.68,0-.57,0-.59-.03-.49-.58q.1-.59-.49-.59c-.15,0-.3,0-.45,0-.47,0-.66-.27-.49-.71,.03-.08,.19-.15,.3-.15,.34-.02,.68-.02,1.02,0,.28,.02,.42-.07,.44-.35,.01-.15,.06-.3,.08-.45,.04-.26,.17-.38,.45-.38,2.44,.01,4.87,.01,7.31,0,.43,0,.51,.17,.45,.55-.09,.61-.08,.62,.57,.62,.19,0,.38,.02,.57,0,.4-.06,.52,.1,.5,.5-.01,.3-.12,.4-.4,.38-.3-.02-.61,.02-.91-.01-.36-.04-.45,.12-.48,.44-.08,.74-.09,.73-.85,.73-1.15,0-2.3,0-3.46,0Zm1.96-1.17c-.38,0-.76-.01-1.13,0-.08,0-.16,.11-.25,.16,.07,.06,.14,.18,.2,.18,.75,.01,1.51,.01,2.26,0,.08,0,.15-.13,.23-.19-.08-.05-.16-.14-.24-.15-.36-.02-.72,0-1.08,0Zm-3.57-.87c.37,0,.75,.01,1.12,0,.08,0,.15-.12,.22-.19-.08-.05-.15-.15-.23-.16-.49-.01-.97,0-1.46,0-.22,0-.45-.01-.67,.01-.08,.01-.15,.13-.23,.2,.08,.05,.15,.14,.23,.14,.34,.02,.67,0,1.01,0Zm-.12,.87c-.36,0-.72-.01-1.07,0-.08,0-.16,.11-.24,.18,.06,.06,.13,.16,.19,.16,.72,.01,1.43,.01,2.15,0,.07,0,.13-.14,.2-.21-.07-.04-.14-.12-.21-.12-.34-.01-.68,0-1.02,0Zm3.78-.87h0c.38,0,.75,0,1.13,0,.06,0,.12-.1,.19-.15-.05-.06-.11-.18-.16-.18-.73-.01-1.46-.02-2.2,0-.06,0-.12,.15-.18,.23,.07,.04,.14,.11,.21,.11,.34,.01,.68,0,1.01,0Z"/>
  <path class="cls-2" d="M123.41,41.47c.19,.02,.36,0,.48,.07,.11,.06,.25,.21,.25,.33,0,.34-.05,.68-.11,1.01-.05,.31,.07,.4,.36,.38,.38-.02,.75,0,1.13,0,.29,0,.41,.14,.4,.42-.12,1.92-.22,3.85-.91,5.67-.13,.33-.09,.52,.19,.7,.16,.1,.28,.25,.44,.36,.25,.17,.28,.33,.1,.6-.4,.59-.4,.62-.94,.11-.31-.29-.44-.3-.68,.09-.36,.57-.83,1.07-1.23,1.62-.23,.3-.43,.31-.74,.1-.62-.43-.61-.39-.12-.95,.46-.53,.86-1.1,1.28-1.65,.16-.2,.13-.36-.08-.52-.38-.31-.73-.66-1.12-.96-.33-.26-.37-.54-.26-.94,.28-1.03,.5-2.09,.77-3.13,.08-.3,0-.42-.31-.39-.63,.06-.35-.42-.41-.69-.07-.36,.11-.48,.44-.43,.4,.06,.59-.07,.59-.5,0-.32,.08-.63,.12-.95,.03-.23,.09-.42,.35-.33Zm1.42,3.61s-.04-.02-.07-.03c-.03-.21,.02-.49-.1-.63-.21-.25-.83,0-.91,.33-.2,.84-.34,1.71-.6,2.53-.2,.62-.09,1.03,.44,1.39,.28,.19,.4,.24,.48-.13,.25-1.16,.51-2.31,.76-3.47Z"/>
  <path class="cls-2" d="M190.02,43.73c0,.07,0,.15,0,.22,.04,.91,.04,.92-.85,.98-.23,.02-.34,.08-.34,.33,.01,.55,0,1.09,0,1.64,0,.29,.12,.27,.3,.14,.09-.07,.19-.12,.28-.2,.19-.16,.31-.11,.45,.07,.62,.81,.58,.66-.14,1.02-.72,.37-1,.84-.91,1.64,.08,.69,.02,1.39,.01,2.09,0,.24,0,.49-.05,.73-.11,.57-.48,.89-1.06,.89-.21,0-.42,0-.62-.04-.84-.13-.93-.26-.8-1.09,.03-.2,.08-.26,.28-.18,1.29,.46,1.12,.09,1.13-.88,0-.55,0-1.09,0-1.64,0-.27-.09-.35-.34-.22-.13,.07-.28,.12-.41,.2-.23,.14-.39,.14-.55-.13-.52-.86-.52-.71,.28-.96,.86-.27,1.16-.73,1.03-1.6-.07-.48-.02-.98-.01-1.47,0-.24-.09-.35-.33-.33-.19,.01-.38,0-.57,0-.62,0-.59,0-.63-.6-.03-.43,.11-.55,.53-.54,.99,.02,.99,0,.99-1.01,0-.25,0-.49,0-.74,0-.57,0-.54,.59-.57,.41-.02,.58,.07,.55,.52-.04,.47,0,.94-.01,1.41,0,.28,.06,.44,.37,.4,.27-.03,.55-.05,.82-.07,0,0-.01-.01-.01-.01Z"/>
  <path class="cls-2" d="M142.97,53.19c-1,0-2-.02-3,.01-.4,.01-.46-.14-.46-.49,0-.33,.07-.48,.44-.45,.41,.03,.83,0,1.25,0,.21,0,.29-.03,.24-.28-.15-.67-.17-.72-.85-.74-.28,0-.35-.11-.35-.37,.01-.62,.01-1.25,0-1.87,0-.28,.06-.4,.37-.4,1.64,.01,3.29,.01,4.93,0,.29,0,.4,.09,.39,.39-.02,.6-.02,1.21,0,1.81,0,.3-.07,.46-.41,.43-.18-.01-.45-.01-.52,.09-.15,.23-.21,.52-.28,.79,0,.03,.14,.13,.23,.13,.36,.02,.72,.03,1.08,0,.42-.04,.38,.22,.39,.49,0,.27,0,.46-.37,.45-1.02-.03-2.04,0-3.06,0Zm.07-2.87c.53,0,1.06-.01,1.58,0,.31,.01,.38-.12,.38-.4,0-.28-.06-.4-.38-.4-1.04,.02-2.07,.02-3.11,0-.32,0-.37,.12-.37,.4,0,.27,.04,.42,.37,.4,.51-.02,1.02,0,1.53,0Zm.05,.91c-.08,0-.15,0-.23,0-.7,0-.7,0-.47,.68,.05,.13,.18,.33,.28,.33,.32,.02,.72,.06,.95-.1,.2-.13,.21-.53,.31-.82-.23-.03-.45-.06-.68-.09-.06,0-.11,0-.17,0Z"/>
  <path class="cls-2" d="M156.3,41.93c.68,0,1.36,.02,2.04,0,.36-.01,.39,.15,.39,.44,0,.3,0,.54-.41,.47-.04,0-.08,0-.11,0-1.03,0-1.02,.01-1.18,1.01-.05,.3,.05,.36,.32,.35,.42-.02,.83,.02,1.25-.01,.38-.03,.38,.19,.37,.46,0,.25,.05,.5-.35,.47-.51-.03-1.02-.01-1.53,0-.15,0-.3,.02-.44,.06-.05,.01-.09,.12-.09,.19,0,.04,.09,.12,.13,.12,.53-.06,.45,.31,.44,.62,0,.3-.03,.62,.37,.73,.36,.09,.53-.03,.57-.45,.02-.18-.04-.44,.27-.34,.24,.08,.69-.09,.64,.42-.03,.31-.04,.66-.19,.92-.11,.19-.41,.32-.65,.36-.31,.06-.64,.02-.96,.01-.63-.02-1-.39-1.03-1.03,0-.14-.04-.28-.06-.42-.1,.11-.19,.22-.29,.32-.37,.35-.73,.71-1.12,1.04-.11,.09-.36,.18-.44,.13-.24-.17-.43-.41-.64-.63,.09-.08,.17-.18,.27-.24,.68-.34,1.16-.89,1.58-1.51,.14-.21,.16-.33-.16-.32-.49,.01-.98-.01-1.47,0-.29,.01-.43-.08-.38-.38,.04-.22-.15-.59,.33-.54,.28,.03,.41-.09,.48-.35,.03-.15,.11-.28,.16-.42,.19-.5,.47-.58,.9-.24,.06,.05,.07,.22,.05,.32-.03,.16-.12,.32-.17,.48-.02,.06,0,.19,.01,.19,.28,0,.74,.07,.8-.05,.18-.35,.2-.78,.26-1.19,0-.01-.22-.08-.34-.08-.57,0-1.13-.03-1.7,0-.4,.02-.36-.21-.36-.46,0-.26-.02-.47,.37-.46,.7,.03,1.4,0,2.1,0Z"/>
  <path class="cls-2" d="M243.55,43.47c-1.32,0-2.65,0-3.97,0q-.66,0-.66,.63c0,.21-.02,.42,0,.62,.06,.43-.08,.58-.55,.58-.43,0-.55-.12-.53-.55,.04-.6,.04-1.21,0-1.81-.04-.48,.16-.56,.58-.55,1.34,.02,2.68,0,4.02,.02,.35,0,.47-.09,.44-.44-.01-.17,.05-.48,.11-.49,.31-.04,.63-.02,.95,.03,.04,0,.08,.27,.06,.41-.06,.41,.13,.5,.51,.49,1.21-.02,2.42-.04,3.63,0,.41,.02,.82,.23,1.21,.4,.08,.03,.14,.26,.12,.38-.14,.66-.3,1.32-.45,1.98-.06,.27-.18,.35-.44,.23-.12-.06-.25-.1-.38-.12-.26-.05-.34-.17-.24-.43,.1-.26,.16-.54,.22-.82,.1-.51,.07-.56-.45-.56-1.4,0-2.8,0-4.19,0Z"/>
  <path class="cls-2" d="M179.66,49.87c0-.66,.02-1.32,0-1.98-.02-.48,.29-.38,.55-.38,.28,0,.59-.08,.53,.4-.04,.32,0,.64-.01,.96-.02,.31,.09,.35,.36,.24,.93-.36,1.88-.68,2.79-1.09,.39-.18,.54-.15,.72,.22,.28,.56,.32,.58-.24,.8-1.07,.43-2.14,.82-3.23,1.2-.3,.1-.4,.23-.4,.55,0,1.29,0,1.29,1.27,1.29,.38,0,.76,0,1.13,0,.62-.02,.74-.13,.84-.75,0-.06,.02-.11,.02-.17,.03-.2,.05-.56,.1-.57,.27-.02,.56,.03,.83,.09,.06,.01,.14,.17,.14,.25-.04,.51-.06,1.02-.18,1.51-.1,.43-.43,.72-.9,.73-1.08,.02-2.15,.04-3.23,0-.62-.02-1.01-.43-1.06-1.12-.05-.73-.01-1.47-.01-2.21,0,0-.02,0-.02,0Z"/>
  <path class="cls-2" d="M203.99,48.97c0-1.26-.02-2.53,.01-3.79,.01-.47-.15-.59-.57-.53-.13,.02-.26,0-.4,0-.71,0-.7,0-.66-.72,.01-.26,.12-.31,.34-.31,.3,.01,.61-.02,.91,0,.31,.02,.38-.11,.37-.39-.02-.49,0-.98,0-1.47,0-.28,.06-.4,.37-.4,.72,0,.72-.03,.72,.68,0,.36,.02,.72,0,1.07-.03,.38,.08,.55,.49,.51,.36-.03,.72,0,1.08,0,.22,0,.28,.08,.3,.29,.05,.73,.06,.73-.71,.74-.37,0-.85-.09-1.08,.1-.18,.15-.07,.67-.07,1.02,0,2.34,0,4.68,0,7.02,0,.16-.07,.46-.14,.47-.29,.04-.6,.02-.89-.03-.04,0-.05-.27-.05-.42,0-1.28,0-2.57,0-3.85Z"/>
  <path class="cls-2" d="M179.75,43.83c0-.66,.01-1.32,0-1.98,0-.28,.06-.43,.37-.4,.15,.02,.3,.01,.45,0,.23-.02,.29,.09,.28,.3-.01,.32,.02,.64,0,.96-.03,.36,.11,.43,.42,.32,.87-.31,1.73-.63,2.6-.93,.12-.04,.35-.08,.38-.03,.17,.26,.3,.55,.42,.84,0,.02-.2,.15-.32,.19-1.03,.36-2.05,.74-3.1,1.07-.32,.1-.43,.22-.4,.54,.03,.26,0,.53,0,.79,.02,.47,.15,.61,.62,.62,.55,0,1.09,0,1.64,0,.55-.01,.68-.15,.74-.71,0-.04,0-.08,0-.11,.04-.19,.06-.53,.13-.54,.27-.04,.56,0,.83,.06,.06,.01,.12,.18,.12,.27-.03,.47-.05,.95-.15,1.4-.11,.47-.47,.74-.95,.75-.98,.02-1.96,.03-2.94,0-.58-.02-1.01-.38-1.06-.99-.07-.8-.02-1.62-.02-2.43-.02,0-.04,0-.06,0Z"/>
  <path class="cls-2" d="M167.14,44.65c0-.74,.01-1.47,0-2.21,0-.29,.08-.4,.39-.4,1.28,.01,2.57,.01,3.85,0,.3,0,.39,.11,.39,.4,0,1.47,0,2.94,0,4.41,0,.29-.1,.4-.4,.4-1.28-.01-2.57-.01-3.85,0-.31,0-.38-.12-.38-.4,.01-.74,0-1.47,0-2.21Zm1.1,0c0,.41,.01,.83,0,1.24-.01,.28,.1,.35,.36,.34,.56-.02,1.13-.02,1.69,0,.32,.01,.37-.13,.37-.4-.01-.79-.01-1.58,0-2.37,0-.27-.04-.42-.36-.4-.56,.03-1.13,.03-1.69,0-.33-.02-.37,.14-.36,.4,.01,.39,0,.79,0,1.18Z"/>
  <path class="cls-2" d="M217.88,43.07c-1.4,0-2.79,.02-4.19,0-.41,0-.61,.08-.53,.52,.01,.07,0,.15,0,.23,.07,.43-.16,.48-.52,.49-.39,0-.55-.09-.51-.5,.03-.36,0-.72,0-1.07,0-.63,0-.63,.61-.63,1.32,0,2.64,0,3.96,0,.3,0,.59,.02,.51-.43-.04-.23,.11-.29,.31-.27,.37,.03,.89-.17,.82,.54,0,.04,.27,.15,.41,.15,1.19,.01,2.38,0,3.57,0,.13,0,.26,0,.4,0,.8,.07,1.11,.46,.97,1.23-.03,.19-.1,.37-.12,.55-.06,.46-.29,.5-.7,.39-.36-.1-.51-.18-.37-.59,.19-.59,.16-.61-.44-.61-1.4,0-2.79,0-4.19,0Z"/>
  <path class="cls-2" d="M210,49.08c0,.94,0,1.89,0,2.83,0,.89-.47,1.36-1.37,1.34-.43-.01-.85-.13-1.28-.18-.24-.03-.29-.16-.3-.38-.03-.81-.04-.81,.75-.64,1.05,.23,1.15,.15,1.15-.91,0-1.6-.02-3.21,.01-4.81,0-.43-.12-.59-.54-.52-.17,.02-.34-.02-.51,0-.48,.08-.55-.16-.54-.57,0-.36,.09-.49,.47-.48,.87,.03,1.74,.03,2.61,0,.43-.02,.39,.24,.38,.5-.01,.26,.12,.62-.38,.54-.42-.07-.45,.17-.44,.5,.01,.92,0,1.85,0,2.77Z"/>
  <path class="cls-2" d="M231.11,44.22c-.21,.1-.39,.17-.55,.27-.27,.18-.47,.18-.63-.14-.07-.13-.16-.25-.26-.37-.15-.19-.08-.28,.12-.37,.4-.17,.81-.33,1.17-.57,.55-.36,1.07-.76,1.57-1.19,.45-.38,.69-.39,1.1,.02,.26,.27,.55,.54,.87,.73,.56,.31,1.15,.57,1.73,.82,.26,.11,.39,.22,.19,.49-.04,.06-.08,.13-.11,.2-.13,.43-.39,.5-.76,.27-.1-.06-.21-.09-.31-.13-.23-.1-.32,0-.29,.22,.06,.4-.14,.46-.48,.45-.92-.02-1.85-.02-2.77,0-.35,0-.6-.01-.53-.46,.01-.07-.04-.14-.07-.23Zm1.92-.26c.39,0,.79,0,1.18,0,.05,0,.1-.02,.15-.03-.02-.05-.02-.11-.05-.13-.44-.32-.89-.63-1.33-.94-.32,.25-.64,.51-.96,.76-.04,.03-.1,.06-.13,.1-.05,.06-.09,.14-.14,.2,.07,.01,.14,.04,.21,.04,.36,0,.71,0,1.07,0Z"/>
  <path class="cls-2" d="M153.35,52.91c-1.7,0-3.4-.01-5.09,0-.39,0-.48-.12-.47-.48,0-.33,.04-.5,.45-.5,3.4,.02,6.79,.02,10.19,0,.39,0,.46,.13,.47,.48,.01,.4-.11,.5-.5,.5-1.68-.02-3.36,0-5.04,0Z"/>
  <path class="cls-2" d="M200.25,50.54c0-.81,0-1.62,0-2.43,0-.07-.02-.14-.03-.21-.08,.03-.15,.07-.23,.1-.02,0-.03,.03-.04,.04-.16,.12-.42,.38-.46,.35-.22-.17-.39-.4-.55-.63-.03-.04,.03-.21,.1-.26,.96-.86,1.67-1.89,2.19-3.06,.12-.26,.23-.24,.42-.11,.08,.05,.16,.11,.25,.14,.39,.14,.41,.38,.17,.68-.01,.01-.01,.04-.03,.05-.73,.88-.83,1.91-.79,3.02,.06,1.55,.02,3.09,0,4.64,0,.17-.05,.46-.14,.48-.25,.06-.52,.03-.78,0-.05,0-.09-.23-.09-.35,0-.81,0-1.62,0-2.43Z"/>
  <path class="cls-2" d="M209.55,35.55c0,1-.78,1.73-1.84,1.73-1.03,0-1.8-.73-1.81-1.7,0-1,.77-1.73,1.84-1.73,1.04,0,1.8,.72,1.81,1.69Z"/>
  <path class="cls-2" d="M232.9,47.43c0,.51,0,1.02,0,1.52,0,.24-.09,.34-.33,.33-.72,0-1.43,0-2.15,0-.25,0-.33-.11-.33-.34,0-1.02,0-2.03,0-3.05,0-.24,.09-.34,.33-.33,.72,0,1.43,0,2.15,0,.25,0,.33,.11,.32,.34,0,.51,0,1.02,0,1.52Zm-.91-.02c0-.15-.02-.3,0-.45,.05-.36-.09-.48-.46-.49-.43-.01-.51,.16-.48,.53,.02,.3,.02,.6,0,.9-.03,.34,.08,.46,.44,.46,.38,0,.57-.09,.51-.5-.02-.15,0-.3,0-.45Z"/>
  <path class="cls-2" d="M236.18,47.47c0,.45-.02,.9,0,1.36,.02,.33-.06,.48-.43,.47-.66-.03-1.32-.02-1.98,0-.28,0-.41-.07-.4-.38,.01-.98,.02-1.96,0-2.94,0-.33,.13-.42,.43-.41,.64,.02,1.28,.03,1.92,0,.39-.02,.48,.14,.46,.5-.03,.47,0,.94,0,1.41Zm-.92,0c0-.23,.03-.46-.01-.68-.02-.11-.14-.26-.24-.28-.58-.13-.7-.02-.7,.56,0,.32-.01,.64,0,.96,0,.11,.08,.27,.16,.3,.47,.2,.78-.02,.78-.52,0-.11,0-.23,0-.34Z"/>
  <path class="cls-2" d="M206.67,47.98c0,.53,.01,1.05,0,1.58-.01,.33,.1,.49,.46,.45,.16-.01,.44,.02,.45,.07,.06,.27,.05,.56,.03,.84,0,.04-.14,.1-.22,.11-.43,.01-.87,0-1.3,0-.31,0-.44-.17-.44-.46,0-1.45,0-2.9,0-4.35,0-.39,.28-.28,.48-.27,.21,0,.54-.14,.54,.28,0,.58,0,1.17,0,1.75Z"/>
  <path class="cls-2" d="M235.33,49.99c-.66,.88-.04,1.29,.47,1.73,.14,.12,.27,.26,.41,.39,.49,.47,.45,.8-.14,1.12-.07,.04-.24-.02-.31-.09-.32-.32-.63-.65-.93-.99-.18-.21-.3-.28-.47,.04-.18,.33-.43,.62-.64,.93-.15,.23-.29,.25-.5,.08-.13-.11-.3-.17-.41-.29-.06-.06-.08-.24-.03-.3,.71-.82,1.14-1.76,1.42-2.79,.14-.5,.5-.09,.75-.11,.11,0,.22,.16,.38,.28Z"/>
  <path class="cls-2" d="M142.98,48.02c-.92,0-1.85-.02-2.77,0-.4,.01-.4-.18-.41-.48-.01-.33,.06-.46,.43-.46,1.87,.02,3.74,.02,5.6,0,.39,0,.41,.17,.42,.48,0,.33-.07,.47-.43,.46-.94-.02-1.89,0-2.83,0Z"/>
  <path class="cls-2" d="M203.54,47.05c-.24,1.44-.45,2.89-.71,4.33-.1,.54-.62,.72-1.09,.41-.05-.03-.07-.19-.04-.27,.58-1.72,.75-3.49,.7-5.29-.01-.49,.25-.42,.56-.44,.35-.02,.53,.05,.49,.45-.03,.26,0,.53,0,.79,.03,0,.07,.01,.1,.02Z"/>
  <path class="cls-2" d="M226.9,49.3c0,.87,0,1.73,0,2.6,0,.25,.01,.46-.35,.41-.25-.04-.5,.05-.5-.39-.01-.96-.08-1.92-.18-2.88-.04-.39,.08-.52,.44-.49,.16,.01,.33,.08,.49,.08,.26,0,.63-.17,.77-.05,.18,.15,.18,.51,.24,.79,.11,.52,.21,1.04,.3,1.55,.04,.24,.08,.44-.29,.45-.28,.01-.44,.03-.49-.33-.1-.67-.27-1.33-.42-1.99-.02-.09-.08-.18-.12-.27,0,.09-.02,.18-.02,.28,0,.08,0,.15,.01,.23,.04,0,.08,0,.11,0Z"/>
  <path class="cls-2" d="M201.83,41.91c-.07,.15-.09,.22-.13,.29-.5,1.04-1.12,2-1.93,2.83-.21,.21-.34,.24-.51-.03-.07-.11-.21-.18-.26-.3-.04-.1-.06-.29,0-.35,.78-.77,1.36-1.66,1.75-2.67,.08-.21,.18-.26,.37-.15,.23,.13,.47,.26,.69,.38Z"/>
  <path class="cls-2" d="M225.7,50.06c-.06,.75-.15,1.5-.19,2.25-.03,.48-.34,.38-.63,.38-.4,0-.27-.27-.26-.47,.04-1.15,.11-2.29,.13-3.44,0-.32,.16-.34,.38-.31,.21,.02,.53-.14,.53,.29,0,.43,0,.87,0,1.3,.01,0,.03,0,.04,0Z"/>
  <path class="cls-2" d="M209.16,43.04c-.26,0-.53,0-.79,0-.61,0-.81-.26-.62-.85,.03-.08,.18-.17,.28-.17,.77-.01,1.54-.02,2.31,0,.09,0,.24,.15,.26,.25,.12,.69,.04,.77-.65,.77-.26,0-.53,0-.79,0Z"/>
  <path class="cls-2" d="M207.13,42.77c-.02,.06-.02,.14-.05,.15-.26,.11-.52,.23-.79,.27-.08,.01-.2-.22-.29-.36-.09-.14-.16-.3-.24-.45-.29-.57-.28-.55,.29-.83,.3-.14,.43-.08,.56,.2,.15,.34,.34,.67,.52,1.01Z"/>
</svg>